<svg width="200" height="200" viewBox="0 0 200 200" fill="none" xmlns="http://www.w3.org/2000/svg">
<g clip-path="url(#clip0_22_6)">
<rect width="200" height="200" rx="32" fill="#020617"/>
<path d="M128.156 133.047C130.271 131.224 132.349 130.312 134.391 130.312C135.557 130.312 136.615 130.604 137.562 131.188C138.51 131.771 139.568 132.682 140.734 133.922C141.828 135.599 142.594 136.984 143.031 138.078C143.542 139.099 143.797 140.12 143.797 141.141C143.797 143.328 142.703 145.406 140.516 147.375C137.016 150.292 133.224 152.917 129.141 155.25C125.057 157.51 120.792 159.443 116.344 161.047C111.896 162.651 107.302 163.854 102.562 164.656C97.8229 165.531 93.1198 165.969 88.4531 165.969C82.5469 165.969 77.0052 165.203 71.8281 163.672C66.651 162.214 62.0208 160.099 57.9375 157.328C53.9271 154.557 50.5365 151.24 47.7656 147.375C44.9948 143.438 43.026 139.026 41.8594 134.141C41.2031 132.099 40.5833 130.786 40 130.203C39.4896 129.547 38.6146 129.219 37.375 129.219C34.6771 129.219 32.599 128.562 31.1406 127.25C29.6823 125.938 28.9531 124.042 28.9531 121.562C28.9531 120.542 29.026 119.885 29.1719 119.594L29.3906 117.406C29.7552 114.781 30.4479 112.885 31.4688 111.719C32.5625 110.552 34.2396 109.969 36.5 109.969H38.1406C41.2031 109.969 43.3542 108.547 44.5938 105.703C46.8542 100.672 49.7344 96.0781 53.2344 91.9219C56.7344 87.7656 60.6719 84.2292 65.0469 81.3125C69.4219 78.3229 74.0885 76.026 79.0469 74.4219C84.0781 72.7448 89.1823 71.9062 94.3594 71.9062C99.7552 71.9062 104.786 72.7083 109.453 74.3125C114.193 75.8438 118.312 77.9948 121.812 80.7656C125.312 83.5365 128.047 86.7812 130.016 90.5C132.057 94.2188 133.078 98.2292 133.078 102.531C133.078 105.521 132.495 108.255 131.328 110.734C130.161 113.214 128.484 115.401 126.297 117.297C124.109 119.12 121.448 120.615 118.312 121.781C115.25 122.948 111.75 123.714 107.812 124.078L69.8594 127.906C68.401 127.906 67.1979 128.271 66.25 129C65.375 129.729 64.9375 130.714 64.9375 131.953C64.9375 133.849 65.6302 135.672 67.0156 137.422C68.474 139.172 70.3698 140.74 72.7031 142.125C75.1094 143.438 77.8438 144.495 80.9062 145.297C84.0417 146.099 87.25 146.5 90.5312 146.5C93.6667 146.5 96.875 146.208 100.156 145.625C103.51 144.969 106.792 144.057 110 142.891C113.281 141.724 116.453 140.339 119.516 138.734C122.578 137.057 125.458 135.161 128.156 133.047ZM103.766 104.828C104.859 104.609 105.807 104.099 106.609 103.297C107.411 102.422 107.812 101.365 107.812 100.125C107.812 99.0312 107.411 98.0104 106.609 97.0625C105.807 96.1146 104.714 95.276 103.328 94.5469C101.943 93.7448 100.339 93.125 98.5156 92.6875C96.6927 92.25 94.7604 92.0312 92.7188 92.0312C89.7292 92.0312 86.6667 92.4688 83.5312 93.3438C80.3958 94.2188 77.5521 95.3854 75 96.8438C72.4479 98.2292 70.3698 99.7969 68.7656 101.547C67.1615 103.224 66.3594 104.901 66.3594 106.578C66.3594 108.255 67.3802 109.094 69.4219 109.094C70.6615 109.094 72.6667 108.948 75.4375 108.656C78.2083 108.365 81.2708 108.036 84.625 107.672C87.9792 107.234 91.3698 106.76 94.7969 106.25C98.224 105.74 101.214 105.266 103.766 104.828Z" fill="white"/>
</g>
<defs>
<clipPath id="clip0_22_6">
<rect width="200" height="200" rx="32" fill="white"/>
</clipPath>
</defs>
</svg>
